<svg id="Layer_1" data-name="Layer 1" xmlns="http://www.w3.org/2000/svg" viewBox="0 0 389.35 50.82"><defs><style>.cls-1{fill:#55bac3;}</style></defs><title>title</title><path class="cls-1" d="M30.3,50.07V49.5c2.24-.75,3.95-2.41,3.95-4.7,0-5-5.21-11.15-15.91-20.71V42.51c0,3.84,1.26,5.84,3.95,7v.57H3V49.5c2.69-1.15,4-3.15,4-7V17.57c0-3.84-1.26-5.84-3.95-7V10l15.39.06L34.25,26.44V17.57c0-3.84-1.26-5.84-3.95-7V10H49.64v.58c-2.69,1.14-3.94,3.14-3.94,7V42.51c0,3.84,1.25,5.84,3.94,7v.57Z"/><path class="cls-1" d="M51.36,50.07V49.5c1.32-.92,2-2.81,2-6.24V25.41c0-3.44-.81-5.38-2-6.24V18.6h12V43.26c0,3.43.46,5.21,2,6.24v.57Zm6.76-33.88A5.84,5.84,0,1,1,64,10.36,5.82,5.82,0,0,1,58.12,16.19Z"/><path class="cls-1" d="M97,30.21a16.8,16.8,0,0,0-10.7-3.77c-4.81,0-8.7,2.91-8.7,7.89s3.89,8,8.7,8,7.49-2.86,7.49-6.13a5.23,5.23,0,0,1,4.92,5.55c0,4.58-4.17,9.16-13.56,9.16S67.38,44.52,67.38,34.33c0-10.7,8.42-16.65,17.74-16.65,5.21,0,7.38,1.49,9,1.49a3.5,3.5,0,0,0,2.24-.8l1.25,11.56Z"/><path class="cls-1" d="M120.54,50.07v-.63c1.21-.86,2-2.75,2-6.18V32.33c0-3.43-2.18-5.38-4.92-5.38a4.92,4.92,0,0,0-4.93,5.21v11.1c0,3.43.46,5.15,2,6.18v.63h-14v-.63c1.2-.86,2-2.75,2-6.18V16.48c0-3.43-.8-5-2-5.84V10c3.43,0,8.81-2.34,12.07-4.69,0,6,0,11.16-.06,15.51a11.48,11.48,0,0,1,7.61-3c8,0,12.31,5.66,12.31,13.79,0,5-.06,10.75-.06,11.67,0,3.43.46,5.15,2,6.18v.63Z"/><path class="cls-1" d="M154,50.87c-9.33,0-17.74-6.81-17.74-16.42,0-10.13,8.41-16.6,17.74-16.6s17.74,6.47,17.74,16.6C171.76,44.06,163.4,50.87,154,50.87Zm7.55-16.42c0-5.1-3.32-7.84-7.55-7.84s-7.55,2.74-7.55,7.84,3.31,7.84,7.55,7.84S161.57,39.43,161.57,34.45Z"/><path class="cls-1" d="M173.76,50.07v-.63c1.2-.86,2-2.75,2-6.18V16.48c0-3.43-.8-5-2-5.84V10c4,0,8.7-2.46,12.07-4.69l-.05,37.94c0,3.43.46,5.15,2,6.18v.63Z"/><path class="cls-1" d="M221,41.83c0,4.06-4.52,9-14.19,9-9.84,0-17-7.32-17-16.77,0-9.72,8-16.25,17-16.25,9.21,0,14.42,5.32,14.42,11.33,0,5-4.75,8.81-12.42,8.81a18.93,18.93,0,0,1-8.58-1.88c.86,3.6,4.17,6.23,9,6.23A12,12,0,0,0,219,37.59,5.05,5.05,0,0,1,221,41.83Zm-14.42-9.27c2.92,0,4.81-1.37,4.81-3.32s-1.55-3.2-4.18-3.2A7.29,7.29,0,0,0,200.54,31,11.15,11.15,0,0,0,206.55,32.56Z"/><path class="cls-1" d="M234.07,50.07V49.5c2.69-1.15,4-3.15,4-7V17.57c0-3.84-1.26-5.84-4-7V10h24.21c11.84,0,17.16,6.64,17.16,14.65s-6.35,13.39-16.53,13.39h-9.44v4.46c0,3.84,1.25,5.84,3.94,7v.57Zm24-21.17c3.54,0,5.83-1.55,5.83-4.64,0-3.32-2.29-5.09-5.83-5.09h-8.64V28.9Z"/><path class="cls-1" d="M294.61,50.87c-9.32,0-17.73-6.81-17.73-16.42,0-10.13,8.41-16.6,17.73-16.6s17.74,6.47,17.74,16.6C312.35,44.06,304,50.87,294.61,50.87Zm7.56-16.42c0-5.1-3.32-7.84-7.56-7.84s-7.55,2.74-7.55,7.84,3.32,7.84,7.55,7.84S302.17,39.43,302.17,34.45Z"/><path class="cls-1" d="M348.4,26.61V38.4c0,1.6.92,3,2.41,3a2.11,2.11,0,0,0,2-1.49c1.66.06,3.2,1.49,3.2,4.24,0,3.6-2.86,6.81-7.95,6.81-5.84,0-9.67-3.67-9.67-10.19V26.61H327.57V38.4c0,1.6.92,3,2.41,3a2.11,2.11,0,0,0,2-1.49c1.66.06,3.2,1.49,3.2,4.24,0,3.6-2.86,6.81-7.95,6.81-5.84,0-9.67-3.67-9.67-10.19V26.61h-3.78v-8c4.41,0,9.5-4,12.71-8.59h1.14V18.6h7c4.41,0,9.5-4,12.71-8.59h1.14V18.6h7v8Z"/><path class="cls-1" d="M384.45,28.9a21,21,0,0,0-12.07-3.78c-3.61,0-5.61.4-5.61,2.06s2,1.54,8.59,2.69c8.86,1.54,10.75,5.38,10.75,9.84,0,5.49-4.8,11-14.07,11-10.07,0-14.59-5.2-14.59-9.61a4.71,4.71,0,0,1,3.2-4.8c1.09,3.31,5.55,6.52,11.56,6.52,3.26,0,5.09-.57,5.09-2.35s-2-2.23-9.21-3.49C360.31,35.65,358,31.76,358,27.29c0-4.86,5.32-9.38,14.25-9.38,4.75,0,7.2,1.32,8.86,1.32a3.32,3.32,0,0,0,2.29-.63l1.55,10Z"/></svg>